inDegrees=no
num_controls=7
num_derivatives=13
num_iterations=86
num_multipliers=7
num_parameters=0
num_slacks=7
num_states=26
objective=0.444965
objective_accelerations=0.057355
objective_balance=0.003462
objective_effort=0.022999
objective_height=0.355652
objective_ligament=0.005498
solver_duration=1362.124833
status=Solve_Succeeded
success=true
DataType=double
version=3
OpenSimVersion=4.5
endheader
time	/jointset/ground_pelvis/pelvis_tilt/value	/jointset/ground_pelvis/pelvis_tx/value	/jointset/ground_pelvis/pelvis_ty/value	/jointset/hip_l/hip_flexion_l/value	/jointset/hip_l/hip_adduction_l/value	/jointset/hip_l/hip_rotation_l/value	/jointset/back/lumbar_extension/value	/jointset/patellofemoral_l/patellar_flexion_l/value	/jointset/knee_l/knee_flexion_l/value	/jointset/knee_l/knee_adduction_l/value	/jointset/knee_l/knee_rotation_l/value	/jointset/ankle_l/ankle_angle_l/value	/jointset/subtalar_l/subtalar_angle_l/value	/jointset/ground_pelvis/pelvis_tilt/speed	/jointset/ground_pelvis/pelvis_tx/speed	/jointset/ground_pelvis/pelvis_ty/speed	/jointset/hip_l/hip_flexion_l/speed	/jointset/hip_l/hip_adduction_l/speed	/jointset/hip_l/hip_rotation_l/speed	/jointset/back/lumbar_extension/speed	/jointset/patellofemoral_l/patellar_flexion_l/speed	/jointset/knee_l/knee_flexion_l/speed	/jointset/knee_l/knee_adduction_l/speed	/jointset/knee_l/knee_rotation_l/speed	/jointset/ankle_l/ankle_angle_l/speed	/jointset/subtalar_l/subtalar_angle_l/speed	/forceset/tau_hip_flexion_l	/forceset/tau_hip_adduction_l	/forceset/tau_hip_rotation_l	/forceset/tau_knee_flexion_l	/forceset/tau_ankle_angle_l	/forceset/tau_subtalar_angle_l	/forceset/tau_lumbar_extension	lambda_cid13_p0	lambda_cid13_p1	lambda_cid13_p2	lambda_cid13_p3	lambda_cid13_p4	lambda_cid13_p5	lambda_cid14_p0	/jointset/ground_pelvis/pelvis_tilt/accel	/jointset/ground_pelvis/pelvis_tx/accel	/jointset/ground_pelvis/pelvis_ty/accel	/jointset/hip_l/hip_flexion_l/accel	/jointset/hip_l/hip_adduction_l/accel	/jointset/hip_l/hip_rotation_l/accel	/jointset/back/lumbar_extension/accel	/jointset/patellofemoral_l/patellar_flexion_l/accel	/jointset/knee_l/knee_flexion_l/accel	/jointset/knee_l/knee_adduction_l/accel	/jointset/knee_l/knee_rotation_l/accel	/jointset/ankle_l/ankle_angle_l/accel	/jointset/subtalar_l/subtalar_angle_l/accel	gamma_cid13_p0	gamma_cid13_p1	gamma_cid13_p2	gamma_cid13_p3	gamma_cid13_p4	gamma_cid13_p5	gamma_cid14_p0
1.5	-0.3622385730210246	-0.02210543415162803	0.7615709253851449	1.101798374452752	-0.4343868436994781	-0.2065526653199233	-0.226413300428408	0.8098059550679451	0.8098059550680884	-0.1305465334051064	-0.1416028050638161	0.1335814409984056	-0.01563687167585349	0.669506513811867	0.2606284729069602	0.5333443012186231	-2.439561341899869	0.2105574925819956	-0.7073809335897379	0.3118963681466833	-2.028955058479642	-2.028955058479653	-0.1325588271340672	0.147388385823741	-0.4235070329693167	0.0234120417391856	-0.1715675898290803	0.03385751526878504	-0.008228047165362134	-0.2103181340675631	0.05123050876326837	0.03649943850350838	0.166876170606026	-15.85420721850236	-15.72658117721029	5.199217450774873	-9.582515437960215	-521.3853615622273	-55.73592803168336	-24.62317383834099	0.6392675684810885	0.7484057636616078	-0.4993459216692471	-1.36076032373138	0.6871156025630581	-0.174747783256916	1.534552490463579	-1.34860518318724	-1.348605183187225	0.1184888372863389	0.2404020314568797	-0.4375056539804739	0.5249534733867334	4.708398244078008e-07	5.592396597550967e-07	-2.762382468167496e-06	-8.086232078628395e-08	6.893751252614897e-07	1.427476706628897e-08	4.450561728708631e-07
1.51	-0.3555116479293526	-0.01946197525244795	0.766878305223905	1.077336571573021	-0.4322483725074196	-0.2136344472030416	-0.2232189369052815	0.7894514606271117	0.7894514606271078	-0.1318687805363452	-0.1401186068723986	0.129324772383412	-0.01537819335322088	0.6757784308303371	0.2680297042901913	0.5280149365137909	-2.452450430206291	0.2171135429470292	-0.7088504263692251	0.3269358791111943	-2.041654074038389	-2.041654074038392	-0.1319030805204556	0.1494530180332311	-0.4277528198338315	0.02832799941838009	-0.1654242892034119	0.03283643279252769	-0.007887586999102825	-0.2076772657537539	0.05174179852114231	0.03577834203774228	0.1618832258957324	-15.47377830878768	-15.4842293976843	5.165388445086675	-9.52625185500432	-517.3104551864949	-55.93652845996758	-25.54164610842716	0.6061516994664108	0.7309853058055957	-0.5671360963433818	-1.200646347852786	0.6363454652330752	-0.11396255928005	1.482581794382093	-1.18716007631524	-1.187160076314153	0.03745002682012031	0.1894820867620362	-0.4069854193269364	0.4754823700775189	3.996578241251972e-07	1.149224739670703e-06	-1.738743892672961e-06	1.172977467825161e-07	5.813874831582794e-07	1.466549571584083e-07	3.944678533291598e-07
1.52	-0.3487250040813082	-0.01674550334340515	0.7721289105453263	1.052756345157473	-0.43004504166936	-0.220727106520756	-0.219875391993523	0.7689786539638691	0.7689786539637228	-0.1331848037107446	-0.1386137647046901	0.1250278718564442	-0.01507024236281799	0.6814502650862666	0.2752310748795064	0.5219893977508245	-2.463246049062916	0.223529421782452	-0.7095564205081321	0.3417326458731927	-2.05261750296101	-2.052617502961006	-0.1313140357699845	0.1515171810854014	-0.431553415363945	0.03326657529324279	-0.1592809885777842	0.03181535031624737	-0.007547126832702297	-0.2050363974399624	0.05225308827900879	0.03505724557194277	0.1568902811854103	-15.09622786261933	-15.24386336937611	5.134720745744012	-9.501502106397483	-513.2979835700825	-56.18121317435371	-26.45956649121409	0.519251015973015	0.7084336048783992	-0.6385807332960928	-0.9420664337719541	0.6590812966408848	-0.02204805514083911	1.486003649961091	-1.001487855961994	-1.001487855962059	0.1051484646582249	0.240308199992949	-0.3484673871002319	0.5294771125203662	3.802039575440855e-07	1.434051659724985e-06	-1.342820021471613e-06	2.02693434571121e-07	5.609349684840617e-07	2.401147065121675e-07	3.797188159781927e-07
1.53	-0.3418845984915964	-0.01395810284827928	0.7773158737672994	1.028078446766475	-0.4277784001877397	-0.2278229207243307	-0.2163852851050661	0.7484047808618582	0.748404780861656	-0.1344956128959051	-0.1370881729595851	0.120695124584641	-0.01471299053923567	0.6865253923538966	0.2822061564860485	0.515293741833423	-2.471974585109764	0.2297745106953967	-0.709526640965265	0.3562392134967482	-2.061856110141834	-2.06185611014179	-0.1308209287410138	0.1535743711606349	-0.4349179530898603	0.03819063267947251	-0.1532341497854888	0.03057249715705635	-0.007199189419597763	-0.2023145515149703	0.05240649652077579	0.03435767603658489	0.1519332664953952	-14.84629673141051	-14.99145236251086	5.103218190867295	-9.308402685981028	-509.4576894688456	-56.47792088174857	-27.37679153583963	0.485843850073074	0.6856452599395088	-0.7013492764603628	-0.784361069806421	0.6036213569870763	0.02784751966993411	1.425555570385281	-0.839979162055246	-0.8399791620492122	0.02558055182404797	0.1840256251107096	-0.3186947613738606	0.4748825199832565	4.157112330208084e-07	1.394648034926614e-06	-1.613843023581771e-06	1.6827696884327e-07	6.334885267031472e-07	2.922214875814193e-07	4.030490159548824e-07
1.54	-0.3349966015756248	-0.01110223157280846	0.7824326221789988	1.003324040239076	-0.4254500280833168	-0.2349159658203447	-0.2127515980900075	0.7277475352854592	0.7277475352851968	-0.1358006532648145	-0.1355428890709596	0.1163310823763709	-0.01430629564812926	0.6909685303381289	0.2889252309484985	0.507946435696084	-2.478547676343219	0.2358755463429762	-0.7090025989956202	0.3704486711936021	-2.069291997839165	-2.06929199783908	-0.1301602725197406	0.1554556097887556	-0.4378124026572437	0.04315518879806161	-0.1471873109932108	0.02932964399785781	-0.006851252006510826	-0.1995927055899814	0.05255990476253937	0.03365810650121433	0.1469762518053675	-14.59774850511786	-14.74195340474314	5.075783771099208	-9.158147258835852	-505.6590230833331	-56.82430201190914	-28.2938881019114	0.3928531592934645	0.6572321760599498	-0.7689107772835742	-0.5109774710934321	0.630270643567827	0.076804430214664	1.426581664620809	-0.6409439592634411	-0.6409439592633791	0.1386583031186976	0.205117910570392	-0.2544497553938808	0.5375768589922312	4.338888027345008e-07	1.448306821356059e-06	-1.708384815465045e-06	1.659037889516841e-07	6.803362402680764e-07	3.475871947127462e-07	4.163453089824683e-07
